<svg width="18" height="19" viewBox="0 0 18 19" xmlns="http://www.w3.org/2000/svg"><title>Page 1@2x</title><g fill="#FFF" fill-rule="evenodd" opacity=".8"><path d="M16.2 1.853h-2.832V.609a.53.53 0 0 0-1.06 0v1.244H5.692V.609a.53.53 0 0 0-1.059 0v1.244H1.8c-.873 0-1.588.714-1.588 1.588v13.95c0 .874.715 1.588 1.588 1.588h14.427c.873 0 1.588-.714 1.588-1.588V3.44c-.027-.874-.741-1.588-1.615-1.588zM1.8 2.912h2.832v1.244a.53.53 0 0 0 1.06 0V2.912h6.617v1.244a.53.53 0 0 0 1.059 0V2.912H16.2a.53.53 0 0 1 .53.53v3.44H1.27v-3.44a.53.53 0 0 1 .53-.53zM16.2 17.92H1.8a.53.53 0 0 1-.53-.53V7.942h15.486v9.45a.573.573 0 0 1-.556.53z"/><path d="M13.473 13.765H4.527a.53.53 0 0 0 0 1.059h8.92a.53.53 0 0 0 .53-.53c0-.291-.213-.53-.504-.53zM6.036 11.832h5.955a.53.53 0 0 0 0-1.059H6.036a.53.53 0 0 0 0 1.06z"/></g></svg>