<svg width="19" height="20" viewBox="0 0 19 20" xmlns="http://www.w3.org/2000/svg"><title>Page 1@2x</title><g stroke="#EEE" stroke-width=".5" fill="#EEE" fill-rule="evenodd"><path d="M1.794 14.455c0-.595.398-1.13.968-1.302l1.252-.377c1.85-.557 3.766-.84 5.698-.84 1.976 0 3.938.29 5.83.86l1.187.357c.579.174.968.697.968 1.302v3.152c0 .33-.268.597-.598.597H2.392a.598.598 0 0 1-.598-.597v-3.152zm.598 4.543h14.707c.768 0 1.392-.624 1.392-1.391v-3.152a2.14 2.14 0 0 0-1.533-2.062l-1.187-.358a20.997 20.997 0 0 0-6.06-.892 20.54 20.54 0 0 0-5.926.873l-1.252.377A2.14 2.14 0 0 0 1 14.455v3.152c0 .767.624 1.391 1.392 1.391zM9.745 1.794a3.514 3.514 0 0 1 3.51 3.51 3.514 3.514 0 0 1-3.51 3.511 3.515 3.515 0 0 1-3.51-3.51 3.515 3.515 0 0 1 3.51-3.51m0 7.814a4.31 4.31 0 0 0 4.305-4.304A4.31 4.31 0 0 0 9.745 1a4.31 4.31 0 0 0-4.304 4.305 4.31 4.31 0 0 0 4.304 4.304"/></g></svg>