<svg width="22" height="22" viewBox="0 0 22 22" xmlns="http://www.w3.org/2000/svg"><title>Group 4@2x</title><g stroke="#BBB" stroke-width=".5" fill="#BBB" fill-rule="evenodd" opacity=".8"><path d="M7.226 9.505a4.001 4.001 0 0 1 3.726-2.513 4.021 4.021 0 0 1 3.723 5.523 4.001 4.001 0 0 1-3.726 2.513 4.022 4.022 0 0 1-3.723-5.523m1.887 6.052a4.88 4.88 0 0 0 1.836.358 4.885 4.885 0 0 0 4.548-3.068 4.91 4.91 0 0 0-4.545-6.743 4.885 4.885 0 0 0-4.549 3.068 4.91 4.91 0 0 0 2.71 6.385"/><path d="M2.11 8.985l1.075-2.662 1.866.448.176-.225a7.23 7.23 0 0 1 1.161-1.18l.223-.18-.481-1.86 2.643-1.121 1.004 1.637.283-.035a7.225 7.225 0 0 1 1.656-.015l.284.03.975-1.653 2.662 1.075-.448 1.867.225.175c.434.339.831.73 1.18 1.161l.18.223 1.86-.48 1.121 2.643-1.638 1.003.036.284c.068.55.073 1.107.015 1.655l-.03.285 1.654.974-1.076 2.662-1.867-.448-.176.226c-.338.434-.729.831-1.16 1.18l-.223.18.48 1.859-2.643 1.122-1.003-1.638-.284.035a7.245 7.245 0 0 1-1.655.016l-.285-.03-.974 1.653-2.662-1.076.448-1.866-.226-.176a7.199 7.199 0 0 1-1.18-1.161l-.18-.223-1.859.481-1.122-2.643 1.638-1.004-.035-.283a7.217 7.217 0 0 1-.015-1.656l.03-.284-1.654-.975zm.726 2.738L1.03 12.83l1.72 4.05 2.05-.53c.282.325.589.627.917.902l-.495 2.06 4.08 1.648 1.076-1.825c.427.03.857.027 1.285-.011l1.107 1.806 4.051-1.719-.53-2.052c.325-.281.626-.588.901-.916l2.06.495 1.649-4.08-1.825-1.076c.03-.427.026-.857-.012-1.285l1.807-1.107-1.72-4.051-2.051.53a8.107 8.107 0 0 0-.916-.901l.494-2.06-4.08-1.649-1.075 1.825a8.1 8.1 0 0 0-1.286.012L9.13 1.089 5.08 2.81l.53 2.051a8.122 8.122 0 0 0-.902.916l-2.06-.494L1 9.362l1.825 1.075c-.03.427-.027.858.011 1.286z"/></g></svg>