<?xml version="1.0" encoding="UTF-8"?>
<svg width="367px" height="352px" viewBox="0 0 367 352" version="1.1" xmlns="http://www.w3.org/2000/svg" xmlns:xlink="http://www.w3.org/1999/xlink">
    <!-- Generator: Sketch 48.2 (47327) - http://www.bohemiancoding.com/sketch -->
    <title>Group 4</title>
    <desc>Created with Sketch.</desc>
    <defs></defs>
    <g id="Page-1" stroke="none" stroke-width="1" fill="none" fill-rule="evenodd" opacity="0.189999998" stroke-linecap="square" stroke-opacity="0.51709692">
        <g id="Group-4" transform="translate(1.000000, 0.000000)" stroke="#011E37">
            <path d="M364.747715,0 L252,351.416701" id="Line-4"></path>
            <path d="M267.747715,0 L155,351.416701" id="Line-4-Copy-12"></path>
            <path d="M332.747715,0 L220,351.416701" id="Line-4-Copy-4"></path>
            <path d="M234.747715,0 L122,351.416701" id="Line-4-Copy-13"></path>
            <path d="M169.747715,0 L57,351.416701" id="Line-4-Copy-24"></path>
            <path d="M299.747715,0 L187,351.416701" id="Line-4-Copy-8"></path>
            <path d="M202.747715,0 L90,351.416701" id="Line-4-Copy-14"></path>
            <path d="M136.747715,0 L24,351.416701" id="Line-4-Copy-25"></path>
            <path d="M348.747715,0 L236,351.416701" id="Line-4-Copy-2"></path>
            <path d="M250.747715,0 L138,351.416701" id="Line-4-Copy-15"></path>
            <path d="M315.747715,0 L203,351.416701" id="Line-4-Copy-5"></path>
            <path d="M218.747715,0 L106,351.416701" id="Line-4-Copy-16"></path>
            <path d="M153.747715,0 L41,351.416701" id="Line-4-Copy-26"></path>
            <path d="M283.747715,0 L171,351.416701" id="Line-4-Copy-9"></path>
            <path d="M185.747715,0 L73,351.416701" id="Line-4-Copy-17"></path>
            <path d="M120.747715,0 L8,351.416701" id="Line-4-Copy-27"></path>
            <path d="M356.747715,0 L244,351.416701" id="Line-4-Copy"></path>
            <path d="M258.747715,0 L146,351.416701" id="Line-4-Copy-18"></path>
            <path d="M324.747715,0 L212,351.416701" id="Line-4-Copy-6"></path>
            <path d="M226.747715,0 L114,351.416701" id="Line-4-Copy-19"></path>
            <path d="M161.747715,0 L49,351.416701" id="Line-4-Copy-28"></path>
            <path d="M291.747715,0 L179,351.416701" id="Line-4-Copy-10"></path>
            <path d="M193.747715,0 L81,351.416701" id="Line-4-Copy-20"></path>
            <path d="M128.747715,0 L16,351.416701" id="Line-4-Copy-29"></path>
            <path d="M340.747715,0 L228,351.416701" id="Line-4-Copy-3"></path>
            <path d="M242.747715,0 L130,351.416701" id="Line-4-Copy-21"></path>
            <path d="M307.747715,0 L195,351.416701" id="Line-4-Copy-7"></path>
            <path d="M210.747715,0 L98,351.416701" id="Line-4-Copy-22"></path>
            <path d="M145.747715,0 L33,351.416701" id="Line-4-Copy-30"></path>
            <path d="M275.747715,0 L163,351.416701" id="Line-4-Copy-11"></path>
            <path d="M177.747715,0 L65,351.416701" id="Line-4-Copy-23"></path>
            <path d="M112.747715,0 L0,351.416701" id="Line-4-Copy-31"></path>
        </g>
    </g>
</svg>