<?xml version="1.0" encoding="UTF-8"?>
<svg width="12px" height="12px" viewBox="0 0 12 12" version="1.1" xmlns="http://www.w3.org/2000/svg" xmlns:xlink="http://www.w3.org/1999/xlink">
    <!-- Generator: Sketch 48.2 (47327) - http://www.bohemiancoding.com/sketch -->
    <title>Fill 1 Copy 8</title>
    <desc>Created with Sketch.</desc>
    <defs></defs>
    <g id="Style-Guide-Copy" stroke="none" stroke-width="1" fill="none" fill-rule="evenodd" transform="translate(-1029.000000, -4021.000000)">
        <path d="M1039.8,4030.60284 C1039.8,4031.26311 1039.26187,4031.8 1038.60071,4031.8 L1031.39929,4031.8 C1030.73813,4031.8 1030.2,4031.26311 1030.2,4030.60284 L1030.2,4026.32498 L1039.8,4026.32498 L1039.8,4030.60284 Z M1039.08409,4022.24853 C1038.92782,4022.21671 1038.76604,4022.2 1038.60071,4022.2 L1037.70009,4022.2 L1037.70009,4021.6 C1037.70009,4021.26809 1037.432,4021 1037.09991,4021 C1036.768,4021 1036.50009,4021.26809 1036.50009,4021.6 L1036.50009,4022.2 L1033.49991,4022.2 L1033.49991,4021.6 C1033.49991,4021.26809 1033.232,4021 1032.90009,4021 C1032.568,4021 1032.29991,4021.26809 1032.29991,4021.6 L1032.29991,4022.2 L1031.39929,4022.2 C1030.07573,4022.2 1029,4023.2736 1029,4024.59716 L1029,4030.60356 C1029,4031.92498 1030.07431,4033 1031.39929,4033 L1038.60071,4033 C1039.92498,4033 1041,4031.9264 1041,4030.60284 L1041,4024.59716 C1041,4023.44036 1040.17707,4022.47218 1039.08409,4022.24853 Z" id="Fill-1-Copy-8" fill="#CED1E0"></path>
    </g>
</svg>