<?xml version="1.0" encoding="UTF-8"?>
<svg width="12px" height="12px" viewBox="0 0 12 12" version="1.1" xmlns="http://www.w3.org/2000/svg" xmlns:xlink="http://www.w3.org/1999/xlink">
    <!-- Generator: Sketch 48.2 (47327) - http://www.bohemiancoding.com/sketch -->
    <title>Fill 1</title>
    <desc>Created with Sketch.</desc>
    <defs></defs>
    <g id="Style-Guide-Copy" stroke="none" stroke-width="1" fill="none" fill-rule="evenodd" transform="translate(-1030.000000, -2888.000000)">
        <path d="M1040.8,2897.60284 C1040.8,2898.26311 1040.26187,2898.8 1039.60071,2898.8 L1032.39929,2898.8 C1031.73813,2898.8 1031.2,2898.26311 1031.2,2897.60284 L1031.2,2893.32498 L1040.8,2893.32498 L1040.8,2897.60284 Z M1040.08409,2889.24853 C1039.92782,2889.21671 1039.76604,2889.2 1039.60071,2889.2 L1038.70009,2889.2 L1038.70009,2888.6 C1038.70009,2888.26809 1038.432,2888 1038.09991,2888 C1037.768,2888 1037.50009,2888.26809 1037.50009,2888.6 L1037.50009,2889.2 L1034.49991,2889.2 L1034.49991,2888.6 C1034.49991,2888.26809 1034.232,2888 1033.90009,2888 C1033.568,2888 1033.29991,2888.26809 1033.29991,2888.6 L1033.29991,2889.2 L1032.39929,2889.2 C1031.07573,2889.2 1030,2890.2736 1030,2891.59716 L1030,2897.60356 C1030,2898.92498 1031.07431,2900 1032.39929,2900 L1039.60071,2900 C1040.92498,2900 1042,2898.9264 1042,2897.60284 L1042,2891.59716 C1042,2890.44036 1041.17707,2889.47218 1040.08409,2889.24853 Z" id="Fill-1" fill="#CED1E0"></path>
    </g>
</svg>