<?xml version="1.0" encoding="UTF-8"?>
<svg width="5px" height="9px" viewBox="0 0 5 9" version="1.1" xmlns="http://www.w3.org/2000/svg" xmlns:xlink="http://www.w3.org/1999/xlink">
    <!-- Generator: Sketch 48.2 (47327) - http://www.bohemiancoding.com/sketch -->
    <title>Page 1</title>
    <desc>Created with Sketch.</desc>
    <defs></defs>
    <g id="Participant-Mgmt---View" stroke="none" stroke-width="1" fill="none" fill-rule="evenodd" transform="translate(-298.000000, -91.000000)">
        <path d="M302.80953,91.1970538 C302.687642,91.070942 302.521956,91 302.349282,91 C302.177241,91 302.011555,91.0709387 301.889667,91.1970538 L298.190454,95.0244601 C298.068566,95.1505718 298,95.3213438 298,95.5000021 C298,95.6786604 298.068561,95.8494324 298.190454,95.9755441 L301.889667,99.8029505 C302.1436,100.065683 302.555613,100.065683 302.809546,99.8029505 C303.063479,99.5402177 303.063479,99.1139265 302.809546,98.8511938 L299.570581,95.4999853 L302.809546,92.1487768 C302.931434,92.0226651 303,91.8512372 303,91.672579 C303,91.4945765 302.931439,91.3231486 302.809546,91.1970369 L302.80953,91.1970538 Z" id="Page-1" fill="#7B268E" transform="translate(300.500000, 95.500000) rotate(-180.000000) translate(-300.500000, -95.500000) "></path>
    </g>
</svg>