<?xml version="1.0" encoding="UTF-8"?>
<svg width="10px" height="10px" viewBox="0 0 10 10" version="1.1" xmlns="http://www.w3.org/2000/svg" xmlns:xlink="http://www.w3.org/1999/xlink">
    <!-- Generator: Sketch 48.2 (47327) - http://www.bohemiancoding.com/sketch -->
    <title>Page 1 Copy 3</title>
    <desc>Created with Sketch.</desc>
    <defs></defs>
    <g id="Page-1" stroke="none" stroke-width="1" fill="none" fill-rule="evenodd">
        <path d="M0.227172598,9.77337893 C0.367172039,9.91338327 0.542004378,9.98304101 0.71683322,9.98304101 C0.891662063,9.98304101 1.06649091,9.91337977 1.20649384,9.77337893 L5.0001049,5.99659422 L8.79371595,9.79033792 C8.93371539,9.93034226 9.10854773,10 9.28337657,10 C9.45820542,10 9.63303426,9.93033876 9.7730372,9.79033792 C10.0530431,9.51032226 10.0530431,9.07323487 9.7730372,8.79391854 L5.99638454,5.00017483 L9.78999559,1.20643113 C10.0700015,0.926415464 10.0700015,0.489328074 9.78999559,0.210011749 C9.50998972,-0.0700039163 9.07291761,-0.0700039163 8.79361105,0.210011749 L5,4.00375545 L1.20638895,0.22697074 C0.926383071,-0.0530449256 0.489310965,-0.0530449256 0.210004406,0.22697074 C-0.0700014686,0.506986405 -0.0700014686,0.944073794 0.210004406,1.22339012 L4.00361546,5.00017483 L0.226962803,8.79391854 C-0.0523612383,9.05617097 -0.0523612383,9.5110216 0.226962803,9.77327403 L0.227172598,9.77337893 Z" id="Page-1-Copy-3" fill="#000000"></path>
    </g>
</svg>