<?xml version="1.0" encoding="UTF-8"?>
<svg width="64px" height="63px" viewBox="0 0 64 63" version="1.1" xmlns="http://www.w3.org/2000/svg" xmlns:xlink="http://www.w3.org/1999/xlink">
    <!-- Generator: Sketch 48.2 (47327) - http://www.bohemiancoding.com/sketch -->
    <title>Page 1</title>
    <desc>Created with Sketch.</desc>
    <defs></defs>
    <g id="Participant-Management-Loading" stroke="none" stroke-width="1" fill="none" fill-rule="evenodd" transform="translate(-651.000000, -270.000000)">
        <g id="Group-5" transform="translate(115.000000, -3.000000)" fill="#034279">
            <path d="M570.000766,274.968765 L570.000766,282.843827 C570.000766,283.932062 569.106229,284.812592 568.00075,284.812592 C566.895271,284.812592 566.000734,283.932032 566.000734,282.843827 L566.000734,274.968765 C566.000734,273.88053 566.895271,273 568.00075,273 C569.106229,273 570.000766,273.88056 570.000766,274.968765 Z M554.730646,277.941109 C554.179862,276.999025 552.957232,276.67598 552.000125,277.222047 C551.043088,277.764225 550.714915,278.97159 551.269649,279.909904 L555.269681,286.731381 C555.820465,287.673464 557.043094,287.996509 558.000202,287.450443 C558.957239,286.908264 559.285412,285.704738 558.730678,284.762586 L554.730646,277.941109 Z M549.945409,291.968562 L543.015655,288.031031 C542.058617,287.488853 540.835938,287.811849 540.285133,288.750094 C539.734349,289.692177 540.058572,290.895752 541.015609,291.43795 L547.945363,295.375481 C548.902401,295.91766 550.12508,295.594664 550.675885,294.656419 C551.230579,293.714335 550.902446,292.51076 549.945409,291.968562 Z M546.000078,302.530989 L538.000016,302.530989 C536.894507,302.530989 536,303.411548 536,304.499754 C536,305.587959 536.894537,306.468519 538.000016,306.468519 L546.000078,306.468519 C547.105587,306.468519 548.000094,305.587959 548.000094,304.499754 C548.000094,303.411548 547.105557,302.530989 546.000078,302.530989 Z M568.00025,324.187408 C566.894741,324.187408 566.000234,325.067968 566.000234,326.156173 L566.000234,334.031235 C566.000234,335.11947 566.894771,336 568.00025,336 C569.105729,336 570.000266,335.11944 570.000266,334.031235 L570.000266,326.156173 C570.000266,325.067938 569.105729,324.187408 568.00025,324.187408 Z M580.730349,322.268649 C580.179565,321.326565 578.956936,321.00352 577.999828,321.549587 C577.042791,322.091765 576.714618,323.295291 577.269352,324.237444 L581.269384,331.058921 C581.820168,332.001004 583.042798,332.324049 583.999905,331.777983 C584.956942,331.235804 585.285115,330.028439 584.730381,329.090126 L580.730349,322.268649 Z M594.980461,317.562118 L588.050707,313.624588 C587.093669,313.082409 585.87099,313.405405 585.320185,314.34365 C584.769401,315.285733 585.093624,316.489309 586.050661,317.031507 L592.980415,320.969037 C593.937453,321.511216 595.160132,321.18822 595.710936,320.249975 C596.265631,319.307892 595.937498,318.104316 594.980461,317.562118 Z M597.999984,302.530595 L589.999922,302.530595 C588.894413,302.530595 587.999906,303.411155 587.999906,304.49936 C587.999906,305.587566 588.894443,306.468126 589.999922,306.468126 L597.999984,306.468126 C599.105493,306.468126 600,305.587566 600,304.49936 C600,303.411155 599.105463,302.530595 597.999984,302.530595 Z M588.054607,295.374625 L594.984361,291.437094 C595.941398,290.894916 596.269571,289.687551 595.714837,288.749237 C595.164052,287.807153 593.941423,287.484108 592.984315,288.030175 L586.054561,291.967706 C585.097524,292.509884 584.769351,293.71341 585.320175,294.655563 C585.87096,295.597647 587.097489,295.920691 588.054597,295.374625 L588.054607,295.374625 Z M583.999875,277.217686 C583.042838,276.675508 581.820158,276.998503 581.269354,277.936748 L577.269322,284.758225 C576.718538,285.700309 577.042761,286.903884 577.999798,287.446082 C578.956836,287.98828 580.179515,287.669104 580.730319,286.72702 L584.730351,279.905543 C585.285045,278.967308 584.956912,277.763723 583.999875,277.217686 Z" id="Page-1"></path>
        </g>
    </g>
</svg>