<?xml version="1.0" encoding="UTF-8"?>
<svg width="102px" height="43px" viewBox="0 0 102 43" version="1.1" xmlns="http://www.w3.org/2000/svg" xmlns:xlink="http://www.w3.org/1999/xlink">
    <!-- Generator: Sketch 48.2 (47327) - http://www.bohemiancoding.com/sketch -->
    <title>path5</title>
    <desc>Created with Sketch.</desc>
    <defs></defs>
    <g id="Page-1" stroke="none" stroke-width="1" fill="none" fill-rule="evenodd">
        <g id="Lockheed_Martin" transform="translate(-146.000000, -1.000000)" fill="#005DAA" fill-rule="nonzero">
            <path d="M247.753889,17.5485222 L229.67987,17.5485222 L234.151066,0.9892794 L218.775671,17.5485222 L146.656028,17.5485222 C146.656028,17.5485222 146.381777,17.5448655 146.390919,17.7066733 C146.390919,17.8218585 146.500619,17.862996 146.656028,17.862996 L217.43093,18.9956504 L208.564413,28.5496223 C208.564413,28.5496223 208.398948,28.7032026 208.500421,28.7937052 C208.573554,28.8549545 208.664971,28.8138169 208.756388,28.7141726 L218.802182,19.0166763 L227.779314,19.162029 L226.078961,26.8565828 L197.055035,42.4486356 C197.055035,42.4486356 196.835635,42.5473658 196.91791,42.6771777 C196.981902,42.7621953 197.08246,42.7475686 197.183019,42.7018602 L225.705066,28.5121414 L222.478053,43.0894675 C222.478053,43.0894675 222.404919,43.3289796 222.551186,43.3591471 C222.670028,43.3838297 222.723964,43.3052112 222.770586,43.1799702 L226.884343,27.9289021 L247.753889,17.5485222 Z M220.328843,17.5485222 L230.264937,7.96072609 L228.134925,17.5485222 L220.328843,17.5485222 Z M229.241983,19.1857974 L240.029168,19.3585752 L227.358797,26.1654716 L229.241983,19.1857974 Z" id="path5"></path>
        </g>
    </g>
</svg>