<?xml version="1.0" encoding="UTF-8"?>
<svg width="102px" height="43px" viewBox="0 0 102 43" version="1.1" xmlns="http://www.w3.org/2000/svg" xmlns:xlink="http://www.w3.org/1999/xlink">
    <!-- Generator: Sketch 48.2 (47327) - http://www.bohemiancoding.com/sketch -->
    <title>path5</title>
    <desc>Created with Sketch.</desc>
    <defs></defs>
    <g id="Page-1" stroke="none" stroke-width="1" fill="none" fill-rule="evenodd">
        <g id="Lockheed_Martin" transform="translate(0.000000, -1.000000)" fill="#FAFAFA" fill-rule="nonzero">
            <path d="M101.753889,17.5485222 L83.6798697,17.5485222 L88.1510663,0.9892794 L72.7756714,17.5485222 L0.656027926,17.5485222 C0.656027926,17.5485222 0.381777466,17.5448655 0.390919148,17.7066733 C0.390919148,17.8218585 0.500619332,17.862996 0.656027926,17.862996 L71.43093,18.9956504 L62.5644126,28.5496223 C62.5644126,28.5496223 62.3989482,28.7032026 62.5004208,28.7937052 C62.5735543,28.8549545 62.6649711,28.8138169 62.7563879,28.7141726 L72.8021823,19.0166763 L81.779314,19.162029 L80.0789611,26.8565828 L51.055035,42.4486356 C51.055035,42.4486356 50.8356346,42.5473658 50.9179097,42.6771777 C50.9819015,42.7621953 51.08246,42.7475686 51.1830185,42.7018602 L79.7050663,28.5121414 L76.4780526,43.0894675 C76.4780526,43.0894675 76.4049191,43.3289796 76.5511861,43.3591471 C76.6700279,43.3838297 76.7239638,43.3052112 76.7705864,43.1799702 L80.8843433,27.9289021 L101.753889,17.5485222 Z M74.3288432,17.5485222 L84.2649373,7.96072609 L82.1349254,17.5485222 L74.3288432,17.5485222 Z M83.2419831,19.1857974 L94.0291679,19.3585752 L81.3587966,26.1654716 L83.2419831,19.1857974 Z" id="path5"></path>
        </g>
    </g>
</svg>