<?xml version="1.0" encoding="UTF-8"?>
<svg width="3px" height="11px" viewBox="0 0 3 11" version="1.1" xmlns="http://www.w3.org/2000/svg" xmlns:xlink="http://www.w3.org/1999/xlink">
    <!-- Generator: Sketch 48.2 (47327) - http://www.bohemiancoding.com/sketch -->
    <title>More Copy</title>
    <desc>Created with Sketch.</desc>
    <defs>
        <path d="M1.328125,2.6875 C0.963539844,2.6875 0.651042969,2.55729297 0.390625,2.296875 C0.130207031,2.03645703 0,1.71875187 0,1.34375 C0,0.968748125 0.130207031,0.651042969 0.390625,0.390625 C0.651042969,0.130207031 0.963539844,0 1.328125,0 C1.69271016,0 2.00520703,0.130207031 2.265625,0.390625 C2.52604297,0.651042969 2.65625,0.968748125 2.65625,1.34375 C2.65625,1.71875187 2.52604297,2.03645703 2.265625,2.296875 C2.00520703,2.55729297 1.69271016,2.6875 1.328125,2.6875 Z M1.328125,4 C1.69271016,4 2.00520703,4.13020703 2.265625,4.390625 C2.52604297,4.65104297 2.65625,4.96874813 2.65625,5.34375 C2.65625,5.71875187 2.52604297,6.03645703 2.265625,6.296875 C2.00520703,6.55729297 1.69271016,6.6875 1.328125,6.6875 C0.963539844,6.6875 0.651042969,6.55729297 0.390625,6.296875 C0.130207031,6.03645703 0,5.71875187 0,5.34375 C0,4.96874813 0.130207031,4.65104297 0.390625,4.390625 C0.651042969,4.13020703 0.963539844,4 1.328125,4 Z M1.328125,8 C1.69271016,8 2.00520703,8.13020703 2.265625,8.390625 C2.52604297,8.65104297 2.65625,8.96874813 2.65625,9.34375 C2.65625,9.71875187 2.52604297,10.036457 2.265625,10.296875 C2.00520703,10.557293 1.69271016,10.6875 1.328125,10.6875 C0.963539844,10.6875 0.651042969,10.557293 0.390625,10.296875 C0.130207031,10.036457 0,9.71875187 0,9.34375 C0,8.96874813 0.130207031,8.65104297 0.390625,8.390625 C0.651042969,8.13020703 0.963539844,8 1.328125,8 Z" id="path-1"></path>
    </defs>
    <g id="Style-Guide-Copy-5" stroke="none" stroke-width="1" fill="none" fill-rule="evenodd" transform="translate(-725.000000, -422.000000)">
        <g id="Icon/More-Vertical" transform="translate(715.000000, 415.000000)">
            <g id="Group" transform="translate(10.000000, 7.000000)">
                <mask id="mask-2" fill="white">
                    <use xlink:href="#path-1"></use>
                </mask>
                <use id="Mask" fill="#333333" xlink:href="#path-1"></use>
                <g id="🎨icon-color/dark" mask="url(#mask-2)" fill="#333333">
                    <g transform="translate(-34.000000, -31.000000)" id="Icon-Shade">
                        <rect x="0" y="0" width="72" height="72"></rect>
                    </g>
                </g>
            </g>
        </g>
    </g>
</svg>