<svg width="16" height="18" viewBox="0 0 16 18" xmlns="http://www.w3.org/2000/svg"><title>Page 1@2x</title><path d="M1.94 15.454h4.412a2.016 2.016 0 0 0 4.032 0H14.8a.95.95 0 0 0 .672-1.623l-1.372-1.372v-4.38a5.631 5.631 0 0 0-4.124-5.477v-.218a1.683 1.683 0 0 0-.86-1.491 1.525 1.525 0 0 0-1.541.03 1.624 1.624 0 0 0-.805 1.38v.3a5.629 5.629 0 0 0-4.124 5.476v4.382l-1.372 1.373a.952.952 0 0 0 .665 1.62zm6.428 1.19a1.283 1.283 0 0 1-1.283-1.19H9.65a1.283 1.283 0 0 1-1.283 1.19zm-6.582-2.29l1.48-1.48h.001a.37.37 0 0 0 .108-.259V8.079a4.917 4.917 0 0 1 3.85-4.84.365.365 0 0 0 .28-.354V2.3a.9.9 0 0 1 .447-.75.836.836 0 0 1 .416-.118.82.82 0 0 1 .392.104.95.95 0 0 1 .476.849v.499c0 .169.117.316.28.355a4.918 4.918 0 0 1 3.85 4.839v4.532c0 .097.039.19.108.258l1.475 1.485a.218.218 0 0 1-.154.367H1.94a.218.218 0 0 1-.154-.367z" stroke-width=".25" stroke="#86AFD8" fill="#86AFD8" fill-rule="evenodd"/></svg>