<svg width="15" height="19" viewBox="0 0 15 19" xmlns="http://www.w3.org/2000/svg"><title>Group@2x</title><g stroke="#FFF" stroke-width=".4" fill="#86AFD8" fill-rule="evenodd"><path d="M7 9c2.211 0 4-1.789 4-4 0-2.211-1.789-4-4-4-2.211 0-4 1.789-4 4 0 2.212 1.789 4 4 4zm0-6.588A2.58 2.58 0 0 1 9.588 5 2.58 2.58 0 0 1 7 7.588 2.58 2.58 0 0 1 4.412 5 2.58 2.58 0 0 1 7 2.412zM2.14 18h10.743c.302 0 .604-.146.812-.364.209-.242.325-.557.302-.896C13.742 12.91 10.957 10 7.5 10s-6.241 2.884-6.497 6.74c-.024.339.092.654.302.896.231.243.533.364.835.364zm5.383-6.545c2.622 0 4.78 2.157 5.08 5.09H2.442c.301-2.909 2.46-5.09 5.081-5.09z"/></g></svg>