<svg width="17" height="20" viewBox="0 0 17 20" xmlns="http://www.w3.org/2000/svg"><title>Group 2@2x</title><g stroke="#BBB" stroke-width=".5" fill="#BBB" fill-rule="evenodd" opacity=".8"><path d="M4.117 13.945l9.161-.058-.005-.831-9.16.058zM4.117 9.424l9.161-.058-.005-.831-9.16.058z"/><path d="M13.44 1l-.887.006v-.002l-.831.005v.002L1 1.079l.114 17.89 15.276-.098-.096-15.053L13.44 1zm-.36.833h.02l2.366 2.335v.004l-2.371.015-.015-2.354zm-11.244.072l10.413-.067.02 3.185 3.202-.02.083 13.043-13.614.087-.104-16.228z"/></g></svg>