<?xml version="1.0" encoding="UTF-8"?>
<svg width="14px" height="14px" viewBox="0 0 14 14" version="1.1" xmlns="http://www.w3.org/2000/svg" xmlns:xlink="http://www.w3.org/1999/xlink">
    <!-- Generator: Sketch 48.2 (47327) - http://www.bohemiancoding.com/sketch -->
    <title>Page 1</title>
    <desc>Created with Sketch.</desc>
    <defs></defs>
    <g id="Style-Guide-Copy-6" stroke="none" stroke-width="1" fill="none" fill-rule="evenodd" transform="translate(-1225.000000, -2186.000000)">
        <path d="M1234.53654,2194.39953 C1235.18554,2193.54741 1235.55075,2192.45181 1235.55075,2191.27481 C1235.55075,2188.35323 1233.19744,2186 1230.27577,2186 C1227.35409,2186 1225,2188.35401 1225,2191.27559 C1225,2194.19716 1227.35331,2196.5504 1230.27499,2196.5504 C1231.45203,2196.5504 1232.50656,2196.1852 1233.39981,2195.53622 L1237.62027,2199.75654 C1237.78233,2199.91859 1237.98548,2200 1238.18863,2200 C1238.39179,2200 1238.59416,2199.91859 1238.757,2199.75654 C1239.08113,2199.43166 1239.08113,2198.94473 1238.75624,2198.61987 L1234.53654,2194.39953 Z M1230.27577,2194.92756 C1228.24656,2194.92756 1226.62367,2193.30472 1226.62367,2191.27559 C1226.62367,2189.24646 1228.24656,2187.62362 1230.27577,2187.62362 C1232.30497,2187.62362 1233.92786,2189.24646 1233.92786,2191.27559 C1233.92786,2193.30394 1232.30421,2194.92756 1230.27577,2194.92756 Z" id="Page-1" fill="#E3E9F0"></path>
    </g>
</svg>