<svg width="14" height="14" viewBox="0 0 14 14" xmlns="http://www.w3.org/2000/svg"><title>Page 1</title><path d="M13.756 12.62L9.536 8.4c.65-.853 1.015-1.948 1.015-3.125A5.264 5.264 0 0 0 5.276 0 5.266 5.266 0 0 0 0 5.276a5.264 5.264 0 0 0 5.275 5.274A5.235 5.235 0 0 0 8.4 9.536l4.22 4.22a.802.802 0 0 0 .569.244.803.803 0 0 0 .568-.243.785.785 0 0 0 0-1.137zm-8.48-3.692a3.637 3.637 0 0 1-3.652-3.652 3.637 3.637 0 0 1 3.652-3.652 3.637 3.637 0 0 1 3.652 3.652 3.637 3.637 0 0 1-3.652 3.652z" fill="#034279" fill-rule="evenodd"/></svg>