<svg width="158" height="53" viewBox="0 0 158 53" xmlns="http://www.w3.org/2000/svg" xmlns:xlink="http://www.w3.org/1999/xlink"><title>Page 1 Copy 31@2x</title><defs><filter x="-4.6%" y="-10.6%" width="109.3%" height="129.8%" filterUnits="objectBoundingBox" id="a"><feOffset dy="2" in="SourceAlpha" result="shadowOffsetOuter1"/><feGaussianBlur stdDeviation="2" in="shadowOffsetOuter1" result="shadowBlurOuter1"/><feColorMatrix values="0 0 0 0 0 0 0 0 0 0 0 0 0 0 0 0 0 0 0.5 0" in="shadowBlurOuter1" result="shadowMatrixOuter1"/><feMerge><feMergeNode in="shadowMatrixOuter1"/><feMergeNode in="SourceGraphic"/></feMerge></filter><path id="b" d="M23.697 38.812V.014H.11v38.798z"/><path id="d" d="M0 42.888V.2h19.667v42.687z"/></defs><g filter="url(#a)" transform="translate(4 1)" fill="none" fill-rule="evenodd"><path d="M62.337 34.3V3.675h4.825v29.815c0 1.455.419 2.6 1.257 3.438.837.837 1.933 1.256 3.288 1.256v4.314c-6.246 0-9.37-2.732-9.37-8.196M78.117 28.338c0 6.817 2.413 10.226 7.237 10.226 2.25 0 4.016-.914 5.294-2.74 1.277-1.828 1.917-4.323 1.917-7.486 0-6.733-2.404-10.1-7.211-10.1-2.201 0-3.957.897-5.269 2.69-1.312 1.794-1.968 4.263-1.968 7.41m-5.078 0c0-4.196 1.13-7.583 3.39-10.163 2.26-2.58 5.234-3.87 8.925-3.87 3.893 0 6.914 1.24 9.064 3.718 2.15 2.478 3.225 5.916 3.225 10.315 0 4.381-1.1 7.836-3.3 10.365-2.202 2.53-5.198 3.794-8.99 3.794-3.876 0-6.897-1.278-9.064-3.832s-3.25-5.997-3.25-10.327M116.511 28.642c-1.523-.338-2.59-.507-3.2-.507-2.437 0-4.426.626-5.966 1.877-1.54 1.252-2.31 2.733-2.31 4.44 0 2.826 1.667 4.238 5.001 4.238 2.438 0 4.596-1.158 6.475-3.476v-6.572zm.457 10.226c-1.93 2.42-4.884 3.629-8.861 3.629-2.133 0-3.982-.774-5.548-2.322-1.566-1.548-2.349-3.472-2.349-5.773 0-2.757 1.206-5.088 3.618-6.99 2.412-1.904 5.489-2.855 9.23-2.855 1.016 0 2.167.22 3.453.66 0-4.398-1.964-6.598-5.89-6.598-3.014 0-5.333.812-6.958 2.436l-2.031-4.034c.914-.744 2.18-1.383 3.796-1.916 1.616-.533 3.161-.8 4.634-.8 3.944 0 6.808.897 8.595 2.69 1.785 1.793 2.678 4.644 2.678 8.551v9.744c0 2.385.711 3.976 2.133 4.77v2.411c-1.963 0-3.432-.28-4.405-.837-.974-.559-1.672-1.48-2.095-2.766z" fill="#A33F97"/><g transform="translate(126.18 3.66)"><mask id="c" fill="#fff"><use xlink:href="#b"/></mask><path d="M18.873 17.447c-1.219-1.828-2.886-2.741-5.002-2.741-2.59 0-4.685.965-6.284 2.893-1.6 1.928-2.4 4.381-2.4 7.358 0 6.547 2.98 9.82 8.938 9.82.761 0 1.676-.241 2.742-.723s1.735-.994 2.006-1.535V17.447zm0 20.857V36.3c-1.676 1.675-4.113 2.513-7.313 2.513-3.402 0-6.161-1.218-8.277-3.654C1.167 32.722.109 29.474.109 25.414c0-4.076 1.219-7.557 3.656-10.441 2.438-2.884 5.34-4.327 8.71-4.327 2.81 0 4.942.66 6.398 1.98V.014h4.824v38.29h-4.824z" fill="#A33F97" mask="url(#c)"/></g><path d="M47.775 26.133S46.25 14.248 31.486 9.886c0 0-8.698-2.614-10.988 1.036-1.575 2.509-.774 5.258 1.247 6.84 1.018.797 3.463 1.958 5.13 2.316 5.462 1.172 11.144 2.325 15.568 3.711 2.4.752 5.332 2.344 5.332 2.344M10.506 28.646S12.03 40.53 26.795 44.892c0 0 8.697 2.615 10.988-1.035 1.574-2.51.773-5.258-1.247-6.84-1.019-.797-3.463-1.958-5.13-2.316-5.462-1.172-11.144-2.325-15.569-3.712-2.398-.751-5.33-2.343-5.33-2.343" fill="#0B91D0"/><g transform="translate(0 .121)"><mask id="e" fill="#fff"><use xlink:href="#d"/></mask><path d="M19.667.2S9.188 3.942 5.63 11.685C4.01 15.212 3.355 20.083 6.744 24.7c0 0-2.803 7.612 9.89 18.189 0 0-17.782-8.167-16.575-24.035C1.266 2.985 19.667.201 19.667.201" fill="#A33F97" mask="url(#e)"/></g></g></svg>