<svg version="1.1" xmlns="http://www.w3.org/2000/svg" xmlns:xlink="http://www.w3.org/1999/xlink" x="0px" y="0px"
	 viewBox="0 285.8 800 231.2" style="enable-background:new 0 285.8 800 231.2;" xml:space="preserve">
<style type="text/css">
	.st0{fill:#231F20;}
</style>
<path class="st0" d="M0,287.7V515h227.3V287.7H0z M28.2,393.7c-5.8-22.7,8.6-43.8,31.7-48.9c2.2-0.5,4.4-0.7,6.7-0.7
	c30.8-0.1,61.5,0,92.3,0c0.9,0,1.8,0.2,2.8,0.2l-78.2,78.5c-1,1-2.4,2.1-3.7,2.2C56.3,427.1,34.8,420.1,28.2,393.7z M167.4,457.6
	c-2.2,0.5-4.4,0.7-6.7,0.7c-30.8,0.1-61.5,0-92.3,0c-0.9,0-1.8-0.2-2.8-0.2l78.3-78.5c1-1,2.4-2.1,3.7-2.2
	c23.5-2.1,45,4.9,51.6,31.3C204.9,431.3,190.5,452.5,167.4,457.6z"/>
<g>
	<g>
		<path class="st0" d="M243.8,410.1h38.9c35.3,0,62.4,15.5,62.4,54.2c0,31.3-22.1,51.1-52.9,51.1h-48.4L243.8,410.1L243.8,410.1z
			 M282.1,483.8h2.4c12.7,0,22.5-5.9,22.5-19.7c0-14.8-8.5-21.1-22.5-21.1h-2.4V483.8z"/>
		<path class="st0" d="M348.1,410.1h38.2v105.2h-38.2V410.1z"/>
		<path class="st0" d="M505.1,453.4c-0.3,17.2-0.3,31.5-12.7,44.9c-11.2,12.1-28.3,18.7-44.7,18.7c-32.1,0-58.1-19.8-58.1-53.6
			c0-34.3,25.3-55,58.3-55c18.3,0,43.4,9.1,51.6,27.1l-35.7,13.1c-2.9-5.3-8.4-8.1-14.5-8.1c-13.7,0-21.2,11.7-21.2,24.4
			c0,11.6,7.3,22.5,19.7,22.5c6,0,13.7-2.8,15.5-9.2H446v-24.8H505.1z"/>
		<path class="st0" d="M508.7,410.1H547v105.2h-38.2L508.7,410.1L508.7,410.1z"/>
		<path class="st0" d="M551.8,410.1h80.4v34.2l-21.1-1v72h-38.2v-72l-21.1,1L551.8,410.1L551.8,410.1z"/>
		<path class="st0" d="M654.8,515.3h-40.5l36.6-105.2h42.3l37.5,105.2h-40.5l-3.5-13.1h-28.9L654.8,515.3z M680.1,477.2l-4.5-18.6
			c-1.1-4.5-1.8-9.1-2.5-13.5h-1.4l-7,32.1H680.1z"/>
		<path class="st0" d="M729.7,410.1h38.2v71.5H800v33.8h-70.3V410.1z"/>
	</g>
	<g>
		<path class="st0" d="M333,287.6h53.3c27,0,47,13.8,47,42.5c0,23.6-14.7,38.4-38.2,38.4h-21.5v34.8H333V287.6z M373.5,339.4h4.1
			c7.4,0,15.4-1.2,15.4-10.6c0-9.1-8.6-9.5-15.5-9.5h-4V339.4z"/>
		<path class="st0" d="M437.5,287.6h42.1v115.7h-42.1V287.6z"/>
		<path class="st0" d="M486.2,287.6H537c26.1,0,48.2,11.1,48.2,40.2c0,17.5-6.8,24.9-22.4,30.1v0.9c2.1,1.7,4.8,3.5,7.1,6.9
			l25.2,37.6h-48.5l-18.4-37.1h-0.8v37.1h-41.1L486.2,287.6L486.2,287.6z M527.4,338.9h2.9c6.9,0,13.8-1.1,13.8-9.7
			c0-8.9-6.3-10-13.5-10h-3.2V338.9z"/>
		<path class="st0" d="M590.5,287.6h77.8v31.6h-35.5v11.1h32.4v30.1h-32.4v11.4h36.7v31.6h-79.1L590.5,287.6L590.5,287.6z"/>
		<path class="st0" d="M303.8,330.8l-9.5-2.1c-3.2-0.8-8.4-1.4-8.4-5.7c0-4.8,5.4-6.1,9.1-6.1c8.5,0,16.1,3.4,23,7.8l11.4-29.5
			c-11.1-6.4-22.8-9.4-35.4-9.4c-25.2,0-50.2,15.4-50.2,42.8c0,18.1,13.8,27.8,30.2,30.7l8.4,1.5c3.8,0.8,9.4,1.2,9.4,6.4
			s-6.6,6.9-10.7,6.9c-9.7,0-18.7-4.8-26.2-10.6l-2.1-1.7l-12.9,32.7c13,6.6,29.9,10.6,44.5,10.6c25,0,50.2-13.7,50.2-41.3
			C334.5,344.3,321.6,334.8,303.8,330.8z"/>
	</g>
</g>
</svg>
